<?xml version="1.0" encoding="UTF-8"?><svg id="Layer_1" xmlns="http://www.w3.org/2000/svg" xmlns:xlink="http://www.w3.org/1999/xlink" viewBox="0 0 16 16"><defs><style>.cls-1{clip-path:url(#clippath);}.cls-2{fill:none;}.cls-2,.cls-3,.cls-4,.cls-5,.cls-6{stroke-width:0px;}.cls-3{fill:#55acee;}.cls-4{fill:#2e3192;}.cls-5{fill:#d7e9ff;}.cls-6{fill:#fff;}</style><clipPath id="clippath"><rect class="cls-2" width="16" height="16"/></clipPath></defs><rect class="cls-5" width="16" height="16"/><g class="cls-1"><path class="cls-4" d="m14.18,4.93h-.92c-.78-1.86-2.51-3.21-4.49-3.47-1.97-.26-3.9.49-5.16,2.02-.37.45-.67.94-.88,1.45h-.91c-.73,0-1.32.59-1.32,1.32v1.76c0,.73.59,1.32,1.32,1.32h1.8l-.19-.58c-.55-1.68-.24-3.39.85-4.71,1.07-1.29,2.7-1.93,4.37-1.71,1.77.23,3.3,1.48,3.9,3.18h0c.1.27.17.54.21.81.13.82.06,1.65-.22,2.41h0c-.68,1.93-2.5,3.23-4.54,3.23-.73,0-1.33.59-1.33,1.32s.59,1.32,1.32,1.32,1.32-.59,1.32-1.32v-.59c1.75-.42,3.23-1.66,3.94-3.36h.93c.73,0,1.32-.59,1.32-1.32v-1.76c0-.73-.59-1.32-1.32-1.32Z"/><path class="cls-3" d="m4.04,11.08h3.96c2.18,0,3.96-1.77,3.96-3.96s-1.77-3.96-3.96-3.96-3.96,1.77-3.96,3.96c0,.89.3,1.75.84,2.44-.11.37-.84,1.51-.84,1.51Z"/><path class="cls-6" d="m8.9,7.85c-.05.02-.09.02-.15.02-.44,0-1.09-1.54-1.09-2.05,0-.19.04-.25.11-.3-.54.06-1.18.26-1.39.51-.04.06-.07.16-.07.29,0,.8.85,2.61,1.45,2.61.28,0,.75-.46,1.13-1.08"/><path class="cls-6" d="m8.62,5.47c.56,0,1.11.09,1.11.4,0,.64-.4,1.41-.61,1.41-.37,0-.83-1.02-.83-1.53,0-.23.09-.28.32-.28"/></g></svg>