<svg xmlns="http://www.w3.org/2000/svg" width="64" height="64" viewBox="0 0 64 64"><g id="Layer_2" data-name="Layer 2"><g id="Layer_1-2" data-name="Layer 1"><g id="ns_helpdesk"><rect width="64" height="64" style="fill:#2e3192"/><path d="M46.62,41.62a17.53,17.53,0,1,0-5.24,5.15l5.91.89Z" style="fill:#fff"/><rect x="29.72" y="28.67" width="4.37" height="13.16" style="fill:#2e3192"/><path d="M31.91,26.81a2.42,2.42,0,0,1-1.74-.68,2.34,2.34,0,0,1-.7-1.72,2.41,2.41,0,0,1,.7-1.75A2.35,2.35,0,0,1,31.91,22a2.32,2.32,0,0,1,1.71.72,2.36,2.36,0,0,1,.71,1.74,2.32,2.32,0,0,1-.7,1.71A2.38,2.38,0,0,1,31.91,26.81Z" style="fill:#2e3192"/></g></g></g></svg>