<svg xmlns="http://www.w3.org/2000/svg" width="533.47" height="123.57" viewBox="0 0 533.47 123.57"><g id="Layer_2" data-name="Layer 2"><g id="Layer_1-2" data-name="Layer 1"><g id="Logo_With_Text" data-name="Logo With Text"><g id="Group_849" data-name="Group 849"><g id="T3PLANET" style="isolation:isolate"><g style="isolation:isolate"><path d="M18,62.17H0V54.5H44.32v7.67h-18v60.44H18Z" fill="#04122d"/><path d="M56.6,108.89l6.14-3.64a16.61,16.61,0,0,0,16,11.13c8.35,0,15.73-5.28,15.73-15.26,0-11.41-9.88-17.55-21.39-14.39l15.16-25H60.53V54.5h39.72L84,80.78c9.4.58,18.7,8,18.7,20.73,0,13.62-10.74,22.06-23.88,22.06C67.63,123.57,59.48,117.24,56.6,108.89Z" fill="#04122d"/><path d="M116.65,54.5h24.08c14.78,0,24.37,9.21,24.37,23.12s-9.59,23.12-24.37,23.12H129.8v21.87H116.65Zm22.93,34.15c7.1,0,12.18-3.07,12.18-11s-5.08-11-12.18-11H129.8V88.65Z" fill="#04122d"/><path d="M177.76,54.5H190.9v56h26.58v12.09H177.76Z" fill="#04122d"/><path d="M266.31,54.5l26.28,68.11h-14.2l-4.5-12.28h-29l-4.5,12.28h-14.2L252.4,54.5Zm3.16,43.74L259.4,70.9,249.33,98.24Z" fill="#04122d"/><path d="M303.34,54.5h13.14L347.75,101h.48V54.5h13.15v68.11H348.23L317,76.08h-.48v46.53H303.34Z" fill="#04122d"/><path d="M376,54.5h38.56V66.59H389.1V82.42h21.39V94.31H389.1v16.21h26.28v12.09H376Z" fill="#04122d"/><path d="M442.44,66.59H426V54.5h46V66.59h-16.4v56H442.44Z" fill="#04122d"/></g></g></g><g id="Group_850" data-name="Group 850"><path id="Path_15355" data-name="Path 15355" d="M518.17,40.68A53,53,0,0,1,506.79,100a53.63,53.63,0,1,0-68.2-80.65,52.92,52.92,0,0,1,79.58,21.33Z" fill="#3a85e6"/></g></g></g></g></svg>